M48
;Layer_Color=9474304
;FILE_FORMAT=4:4
METRIC,LZ
;TYPE=PLATED
T1F00S00C0.3048
T2F00S00C0.5080
T3F00S00C0.6000
T4F00S00C0.7112
T5F00S00C0.8000
T6F00S00C1.0200
T7F00S00C1.1000
T8F00S00C1.2000
;TYPE=NON_PLATED
T10F00S00C1.0000
%
T01
X0037465Y0024257
X00205704Y0061341
X0037592Y0041529
Y0036957
X00354584Y00702056
T02
X00136906Y0045466
T03
X0043561Y0024257
Y0026797
Y0029337
X0018161
Y0026797
Y0024257
Y0031877
Y0034417
Y0036957
Y0039497
Y0042037
Y0044577
Y0047117
Y0049657
Y0052197
Y0054737
Y0057277
Y0059817
X0043561
Y0057277
Y0054737
Y0052197
Y0049657
Y0047117
Y0044577
Y0042037
Y0039497
Y0036957
Y0034417
Y0031877
T04
X00242316Y00154178
T05
X0002032Y0026416
Y0028956
X0009652
Y0026416
Y0031496
Y0034036
Y0036576
Y0039116
X0002032
Y0036576
Y0034036
Y0031496
X0054229Y004699
Y004953
Y005207
T06
X0050673Y0023749
X0053213
X0055753
X0010033Y0050038
X0007493
X0004953
X0002413
X0002794Y0061341
X0005334
X0007874
Y0069469
X0005334
X0002794
X0040132Y0069723
X0042672
X0045212
X0047752
X0050038Y0061722
X0052578
X0055118
Y0059182
X0052578
X0050038
X00524928Y00383848
Y00358448
Y00333048
Y00307648
X0055372Y0030734
Y0033274
Y0035814
Y0038354
X0026162Y0072898
X0023622
X0021082
X0018542
T07
X00508Y0017145
X005334
X005588
T08
X0026543Y0025273
X0034417
Y0058473
X0026543
T10
X0052197Y0009017
X0054737
M30
