G04*
G04 #@! TF.GenerationSoftware,Altium Limited,Altium Designer,22.10.1 (41)*
G04*
G04 Layer_Color=8388736*
%FSLAX44Y44*%
%MOMM*%
G71*
G04*
G04 #@! TF.SameCoordinates,8F1CFC92-A969-465F-A5A2-9E5291BB03E1*
G04*
G04*
G04 #@! TF.FilePolarity,Negative*
G04*
G01*
G75*
%ADD24R,1.6032X1.4032*%
%ADD25R,1.4032X1.6032*%
%ADD26R,1.0032X1.4032*%
%ADD27R,1.6002X1.4732*%
%ADD28R,2.6032X1.2032*%
%ADD29R,2.6032X3.5032*%
%ADD30R,2.7032X1.4032*%
%ADD31O,2.7032X1.4032*%
%ADD32O,1.8032X2.7032*%
%ADD33R,1.8032X2.7032*%
%ADD34C,1.7232*%
%ADD35R,1.7232X1.7232*%
%ADD36R,2.4892X1.7272*%
%ADD37O,2.4892X1.7272*%
%ADD38C,1.8032*%
%ADD39R,1.8032X1.8032*%
%ADD40R,1.7232X1.7232*%
%ADD41R,1.8032X1.8032*%
%ADD42R,1.9812X1.9812*%
%ADD43O,1.9812X2.1082*%
%ADD44R,2.7432X4.2672*%
%ADD45R,4.2672X2.7432*%
D24*
X148590Y116840D02*
D03*
Y97840D02*
D03*
Y70416D02*
D03*
Y51416D02*
D03*
D25*
X334714Y177192D02*
D03*
X353714D02*
D03*
X277476Y180374D02*
D03*
X296476D02*
D03*
X241954Y180306D02*
D03*
X222954D02*
D03*
X405834Y141632D02*
D03*
X424834D02*
D03*
X224136Y41944D02*
D03*
X243136D02*
D03*
X176894Y639472D02*
D03*
X195894D02*
D03*
X311766Y638844D02*
D03*
X330766D02*
D03*
X218974Y639472D02*
D03*
X237974D02*
D03*
X261054D02*
D03*
X280054D02*
D03*
D26*
X350520Y29770D02*
D03*
Y99770D02*
D03*
D27*
X430530Y48260D02*
D03*
Y71120D02*
D03*
D28*
X225000Y127140D02*
D03*
Y104140D02*
D03*
Y81140D02*
D03*
D29*
X283000Y104140D02*
D03*
D30*
X181610Y598170D02*
D03*
D31*
Y572770D02*
D03*
Y547370D02*
D03*
Y521970D02*
D03*
Y496570D02*
D03*
Y471170D02*
D03*
Y445770D02*
D03*
Y420370D02*
D03*
Y394970D02*
D03*
Y369570D02*
D03*
Y344170D02*
D03*
Y318770D02*
D03*
Y293370D02*
D03*
Y267970D02*
D03*
Y242570D02*
D03*
X435610Y598170D02*
D03*
Y572770D02*
D03*
Y547370D02*
D03*
Y521970D02*
D03*
Y496570D02*
D03*
Y471170D02*
D03*
Y445770D02*
D03*
Y420370D02*
D03*
Y394970D02*
D03*
Y369570D02*
D03*
Y344170D02*
D03*
Y318770D02*
D03*
Y293370D02*
D03*
Y267970D02*
D03*
Y242570D02*
D03*
D32*
X265430Y252730D02*
D03*
X344170D02*
D03*
X265430Y584730D02*
D03*
D33*
X344170D02*
D03*
D34*
X78740Y694690D02*
D03*
X53340D02*
D03*
X532130Y237490D02*
D03*
X557530D02*
D03*
X553720Y332740D02*
D03*
Y358140D02*
D03*
Y383540D02*
D03*
X524928Y333048D02*
D03*
Y358448D02*
D03*
Y383848D02*
D03*
X452120Y697230D02*
D03*
X426720D02*
D03*
X401320D02*
D03*
X551180Y617220D02*
D03*
X525780D02*
D03*
X551180Y591820D02*
D03*
X525780D02*
D03*
X500380D02*
D03*
X49530Y500380D02*
D03*
X74930D02*
D03*
X100330D02*
D03*
X53340Y613410D02*
D03*
X78740D02*
D03*
X210820Y728980D02*
D03*
X236220D02*
D03*
X261620D02*
D03*
D35*
X27940Y694690D02*
D03*
X506730Y237490D02*
D03*
X477520Y697230D02*
D03*
X500380Y617220D02*
D03*
X24130Y500380D02*
D03*
X27940Y613410D02*
D03*
X185420Y728980D02*
D03*
D36*
X20320Y391160D02*
D03*
D37*
Y365760D02*
D03*
Y340360D02*
D03*
Y314960D02*
D03*
Y289560D02*
D03*
Y264160D02*
D03*
X96520D02*
D03*
Y289560D02*
D03*
Y391160D02*
D03*
Y365760D02*
D03*
Y340360D02*
D03*
Y314960D02*
D03*
D38*
X558800Y171450D02*
D03*
X533400D02*
D03*
X542290Y520700D02*
D03*
Y495300D02*
D03*
D39*
X508000Y171450D02*
D03*
D40*
X553720Y307340D02*
D03*
X524928Y307648D02*
D03*
D41*
X542290Y469900D02*
D03*
D42*
X547370Y90170D02*
D03*
D43*
X521970D02*
D03*
D44*
X104140Y128270D02*
D03*
D45*
X53340Y90170D02*
D03*
Y153670D02*
D03*
M02*
