G04*
G04 #@! TF.GenerationSoftware,Altium Limited,Altium Designer,22.10.1 (41)*
G04*
G04 Layer_Color=8421504*
%FSLAX44Y44*%
%MOMM*%
G71*
G04*
G04 #@! TF.SameCoordinates,8F1CFC92-A969-465F-A5A2-9E5291BB03E1*
G04*
G04*
G04 #@! TF.FilePolarity,Positive*
G04*
G01*
G75*
%ADD18R,1.4000X1.2000*%
%ADD19R,1.2000X1.4000*%
%ADD20R,0.8000X1.2000*%
%ADD21R,1.3970X1.2700*%
%ADD22R,2.4000X1.0000*%
%ADD23R,2.4000X3.3000*%
D18*
X148590Y116840D02*
D03*
Y97840D02*
D03*
Y70416D02*
D03*
Y51416D02*
D03*
D19*
X334714Y177192D02*
D03*
X353714D02*
D03*
X277476Y180374D02*
D03*
X296476D02*
D03*
X241954Y180306D02*
D03*
X222954D02*
D03*
X405834Y141632D02*
D03*
X424834D02*
D03*
X224136Y41944D02*
D03*
X243136D02*
D03*
X176894Y639472D02*
D03*
X195894D02*
D03*
X311766Y638844D02*
D03*
X330766D02*
D03*
X218974Y639472D02*
D03*
X237974D02*
D03*
X261054D02*
D03*
X280054D02*
D03*
D20*
X350520Y29770D02*
D03*
Y99770D02*
D03*
D21*
X430530Y48260D02*
D03*
Y71120D02*
D03*
D22*
X225000Y127140D02*
D03*
Y104140D02*
D03*
Y81140D02*
D03*
D23*
X283000Y104140D02*
D03*
M02*
